 <svg  version="1.0" xmlns="http://www.w3.org/2000/svg"  width="1500.000000pt" height="1500.000000pt" viewBox="0 0 1500.000000 1500.000000"  preserveAspectRatio="xMidYMid meet">  <g transform="translate(0.000000,1500.000000) scale(0.100000,-0.100000)" fill="#26399c" stroke="none"> <path d="M6700 14318 c-31 -16 -125 -201 -333 -658 -34 -76 -91 -198 -142 -305 -72 -151 -120 -254 -178 -380 -30 -66 -77 -167 -105 -225 -67 -141 -132 -281 -132 -285 0 -2 -29 -64 -64 -137 -101 -210 -176 -370 -176 -374 0 -4 -52 -115 -131 -282 -28 -59 -71 -148 -95 -199 -24 -50 -44 -94 -44 -96 0 -5 -63 -138 -160 -342 -36 -75 -62 -132 -123 -265 -81 -179 -165 -352 -190 -395 -39 -64 -105 -139 -159 -180 -58 -44 -299 -167 -449 -230 -67 -29 -138 -62 -379 -177 -80 -39 -172 -81 -205 -95 -33 -14 -103 -46 -155 -70 -52 -25 -140 -67 -195 -93 -156 -74 -255 -120 -259 -120 -4 0 -132 -60 -322 -150 -55 -27 -145 -68 -200 -93 -108 -49 -229 -105 -369 -172 -49 -24 -144 -67 -210 -98 -171 -78 -246 -113 -360 -167 -55 -27 -154 -73 -220 -103 -160 -73 -241 -110 -360 -167 -55 -26 -143 -68 -195 -93 -103 -48 -127 -68 -135 -113 -10 -53 24 -89 133 -140 53 -26 142 -68 197 -94 55 -26 125 -59 155 -73 30 -14 116 -53 190 -87 74 -34 180 -83 235 -110 115 -55 191 -90 360 -167 66 -31 161 -74 210 -98 140 -67 261 -123 369 -172 55 -25 145 -66 200 -93 190 -90 318 -150 322 -150 5 0 125 -56 269 -125 194 -93 263 -125 343 -159 42 -19 138 -63 212 -98 222 -107 280 -134 380 -178 201 -88 397 -191 456 -239 105 -85 149 -160 331 -561 61 -133 87 -190 123 -265 97 -204 160 -337 160 -342 0 -2 20 -47 45 -99 25 -52 65 -136 89 -186 24 -51 71 -151 104 -223 80 -175 122 -264 203 -433 38 -79 69 -145 69 -147 0 -4 65 -144 132 -285 28 -58 75 -159 105 -225 58 -126 106 -229 178 -380 51 -107 108 -229 142 -305 60 -131 88 -190 128 -275 24 -49 72 -152 108 -227 58 -122 69 -140 101 -155 34 -16 38 -16 72 0 32 15 43 33 101 155 36 75 84 178 108 227 40 85 68 144 128 275 34 76 91 198 142 305 72 151 120 254 178 380 30 66 77 167 105 225 67 141 132 281 132 285 0 2 29 64 64 137 101 210 176 370 176 374 0 4 49 108 131 282 28 59 66 139 84 177 19 39 58 124 88 190 30 66 79 172 110 235 30 63 66 140 80 170 26 58 58 127 126 275 69 149 141 288 168 323 54 72 156 142 328 226 94 46 199 96 235 111 36 15 112 50 170 77 58 28 161 77 230 110 69 33 152 71 185 85 33 14 103 46 155 70 52 25 140 67 195 93 156 74 255 120 259 120 4 0 132 60 322 150 55 27 145 68 200 93 111 51 236 108 369 172 50 24 115 54 145 68 30 13 96 44 145 67 50 23 110 51 135 62 25 11 90 42 145 68 55 27 150 71 210 98 114 52 258 119 380 177 39 18 118 56 177 84 120 56 154 90 143 145 -8 46 -32 65 -145 118 -58 27 -136 65 -175 83 -83 40 -195 91 -365 170 -69 31 -165 76 -215 100 -49 23 -115 54 -145 68 -30 14 -95 44 -145 67 -49 23 -115 54 -145 67 -30 14 -95 44 -145 68 -133 64 -258 121 -369 172 -55 25 -145 66 -200 93 -190 90 -318 150 -322 150 -4 0 -103 46 -259 120 -55 26 -143 68 -195 93 -52 24 -122 56 -155 70 -33 14 -125 56 -205 95 -241 115 -312 148 -379 177 -150 63 -391 186 -449 230 -54 41 -120 116 -159 180 -30 50 -142 286 -250 525 -14 30 -42 91 -63 135 -101 210 -160 337 -160 342 0 4 -32 73 -145 308 -68 142 -125 264 -125 269 0 4 -75 164 -176 374 -35 73 -64 135 -64 137 0 4 -65 144 -132 285 -28 58 -75 159 -105 225 -58 126 -106 229 -178 380 -51 107 -108 229 -142 305 -60 131 -88 190 -128 275 -24 50 -72 151 -107 225 -36 74 -71 141 -80 147 -23 20 -71 25 -98 11z"/> <path d="M10925 14296 c-25 -25 -132 -242 -233 -471 -22 -49 -69 -151 -105 -225 -35 -74 -87 -182 -115 -240 -51 -107 -124 -216 -164 -243 -13 -8 -35 -25 -50 -38 -15 -13 -60 -41 -100 -61 -87 -44 -288 -138 -294 -138 -3 0 -71 -32 -152 -71 -130 -63 -257 -122 -469 -219 -80 -37 -103 -60 -103 -106 0 -27 7 -43 31 -65 17 -16 35 -29 39 -29 4 0 77 -33 161 -74 172 -82 288 -136 295 -136 2 0 81 -38 176 -84 95 -46 220 -106 278 -134 108 -52 154 -84 228 -162 37 -39 122 -167 122 -184 0 -3 23 -54 51 -114 28 -59 70 -147 94 -197 23 -49 66 -142 95 -205 28 -63 72 -158 97 -210 25 -52 59 -123 75 -158 34 -71 70 -98 119 -87 25 6 79 59 79 78 0 4 20 50 45 103 25 52 45 97 45 99 0 2 35 77 79 167 72 149 106 222 149 318 8 19 46 99 83 176 63 133 72 147 155 231 94 94 98 96 399 238 55 26 151 72 213 101 63 30 115 54 118 54 2 0 48 21 101 46 323 152 353 170 353 219 0 40 -26 81 -62 98 -18 8 -85 38 -148 67 -63 29 -173 80 -245 115 -144 69 -246 117 -345 161 -159 70 -318 156 -358 196 -91 87 -135 157 -237 383 -37 83 -89 195 -115 250 -26 55 -73 153 -104 218 -31 64 -56 119 -56 121 0 21 -103 217 -119 225 -34 19 -80 13 -106 -13z"/> </g> </svg> 